<svg width="6" height="13" viewBox="0 0 6 13" fill="none" xmlns="http://www.w3.org/2000/svg">
<path fill-rule="evenodd" clip-rule="evenodd" d="M4.72013 3.81156C4.69673 3.84253 4.6675 3.8583 4.63728 3.8583C4.60658 3.8583 4.57491 3.84115 4.552 3.80741L2.8907 1.40433C1.21088 3.82013 1.19285 3.82898 1.15777 3.84585C1.0949 3.87489 1.02813 3.82926 1.00669 3.74296C0.989149 3.67273 1.00718 3.59722 1.04812 3.5549C1.13827 3.44262 2.14411 2.00171 2.80591 1.04977C2.82783 1.0177 2.85853 1 2.89119 1C2.92286 1 2.95357 1.01824 2.97647 1.05033L4.72305 3.57676C4.76886 3.64285 4.7674 3.74795 4.72013 3.81156ZM2.87706 1.5003C2.94284 1.5003 2.99597 1.57442 2.99597 1.66597L2.99645 11.4533C2.99645 11.5449 2.94382 11.6193 2.87755 11.6193C2.81224 11.6193 2.75912 11.5449 2.75912 11.4533L2.75815 1.66597C2.75815 1.57442 2.81175 1.5003 2.87706 1.5003Z" fill="#00A651"/>
<path d="M4.72013 3.81156L5.1191 4.11296L5.12146 4.10978L4.72013 3.81156ZM4.552 3.80741L4.9657 3.52657L4.96329 3.52307L4.552 3.80741ZM2.8907 1.40433L3.30198 1.12L2.89189 0.526803L2.48019 1.11889L2.8907 1.40433ZM1.15777 3.84585L1.36744 4.29983L1.37444 4.29646L1.15777 3.84585ZM1.00669 3.74296L1.49194 3.6224L1.49179 3.62181L1.00669 3.74296ZM1.04812 3.5549L1.40751 3.90252L1.42355 3.88594L1.43799 3.86795L1.04812 3.5549ZM2.80591 1.04977L3.21646 1.33519L3.21869 1.33192L2.80591 1.04977ZM2.97647 1.05033L3.3878 0.765966L3.38343 0.759845L2.97647 1.05033ZM4.72305 3.57676L4.31177 3.86109L4.31211 3.86157L4.72305 3.57676ZM2.99597 1.66597H2.49597V1.66599L2.99597 1.66597ZM2.99645 11.4533H3.49645V11.4533L2.99645 11.4533ZM2.75912 11.4533H3.25912V11.4533L2.75912 11.4533ZM2.75815 1.66597H2.25815V1.66602L2.75815 1.66597ZM4.32117 3.51018C4.37032 3.44512 4.47757 3.3583 4.63728 3.3583V4.3583C4.85742 4.3583 5.02315 4.23995 5.11909 4.11295L4.32117 3.51018ZM4.63728 3.3583C4.80109 3.3583 4.91298 3.44893 4.96569 3.52658L4.13832 4.08823C4.23684 4.23337 4.41207 4.3583 4.63728 4.3583V3.3583ZM4.96329 3.52307L3.30198 1.12L2.47941 1.68867L4.14072 4.09174L4.96329 3.52307ZM2.48019 1.11889C1.6398 2.32747 1.21728 2.93082 1.00065 3.23399C0.890352 3.38834 0.840037 3.45552 0.817201 3.48397C0.804169 3.5002 0.813044 3.48734 0.83449 3.46757C0.848272 3.45486 0.868454 3.43807 0.894921 3.42112C0.920753 3.40458 0.94344 3.39411 0.94109 3.39524L1.37444 4.29646C1.40562 4.28147 1.45663 4.25413 1.51231 4.2028C1.54802 4.16987 1.57719 4.13468 1.59702 4.10997C1.63993 4.05652 1.70569 3.96733 1.81427 3.81539C2.03537 3.50597 2.46178 2.897 3.30121 1.68978L2.48019 1.11889ZM0.948114 3.39193C1.08773 3.32745 1.24113 3.35144 1.34834 3.42453C1.44324 3.48922 1.47966 3.573 1.49194 3.6224L0.521445 3.86353C0.555159 3.99922 0.635691 4.14896 0.785044 4.25078C0.946718 4.361 1.16494 4.39329 1.36742 4.29977L0.948114 3.39193ZM1.49179 3.62181C1.50256 3.66491 1.50242 3.7077 1.49322 3.7485C1.48453 3.78702 1.46252 3.84565 1.40751 3.90252L0.688728 3.20728C0.507279 3.39488 0.4699 3.65715 0.521592 3.86412L1.49179 3.62181ZM1.43799 3.86795C1.54249 3.73781 2.56522 2.27192 3.21645 1.33518L2.39537 0.764362C2.06468 1.24004 1.64812 1.83775 1.3031 2.33038C1.13054 2.57677 0.976227 2.79637 0.859625 2.96111C0.801262 3.04357 0.752854 3.11156 0.716549 3.16201C0.698356 3.18729 0.683769 3.20738 0.672788 3.2223C0.660255 3.23932 0.656603 3.2439 0.658241 3.24186L1.43799 3.86795ZM3.21869 1.33192C3.16566 1.40951 3.05353 1.5 2.89119 1.5V0.5C2.66354 0.5 2.49001 0.625885 2.39313 0.767615L3.21869 1.33192ZM2.89119 1.5C2.71998 1.5 2.61353 1.40249 2.56951 1.34081L3.38343 0.759845C3.2936 0.633993 3.12575 0.5 2.89119 0.5V1.5ZM2.56519 1.33466L4.31177 3.86109L5.13434 3.29242L3.38776 0.765998L2.56519 1.33466ZM4.31211 3.86157C4.26548 3.7943 4.256 3.73047 4.25654 3.68863C4.25707 3.64715 4.2681 3.58158 4.3188 3.51335L5.12146 4.10978C5.21943 3.97794 5.25482 3.82801 5.25645 3.70154C5.25809 3.57473 5.22644 3.42531 5.134 3.29194L4.31211 3.86157ZM2.87706 2.0003C2.70794 2.0003 2.60064 1.90399 2.55493 1.84028C2.50876 1.77594 2.49597 1.71264 2.49597 1.66597H3.49597C3.49597 1.52775 3.4566 1.38162 3.36744 1.25733C3.27871 1.13367 3.11196 1.0003 2.87706 1.0003V2.0003ZM2.49597 1.66599L2.49645 11.4534L3.49645 11.4533L3.49597 1.66594L2.49597 1.66599ZM2.49645 11.4533C2.49645 11.4078 2.50878 11.3448 2.55487 11.2802C2.60093 11.2156 2.70857 11.1193 2.87755 11.1193V12.1193C3.1128 12.1193 3.27989 11.9857 3.36883 11.8611C3.4578 11.7364 3.49645 11.5905 3.49645 11.4533H2.49645ZM2.87755 11.1193C3.04886 11.1193 3.15612 11.2175 3.20081 11.2802C3.24636 11.344 3.25912 11.4067 3.25912 11.4533H2.25912C2.25912 11.5915 2.29844 11.7372 2.38688 11.8611C2.47446 11.9838 2.64093 12.1193 2.87755 12.1193V11.1193ZM3.25912 11.4533L3.25815 1.66592L2.25815 1.66602L2.25912 11.4534L3.25912 11.4533ZM3.25815 1.66597C3.25815 1.71366 3.24492 1.77696 3.19898 1.84082C3.154 1.90334 3.04707 2.0003 2.87706 2.0003V1.0003C2.64174 1.0003 2.47536 1.13432 2.38725 1.25679C2.29817 1.38059 2.25815 1.52673 2.25815 1.66597H3.25815Z" fill="#00A651"/>
</svg>
