<svg width="65" height="20" viewBox="0 0 65 20" fill="none" xmlns="http://www.w3.org/2000/svg">
<path d="M16.8484 19.1426L12.2545 14.0993H5.46491V11.3038H13.0287C14.1779 11.3038 15.0429 10.9922 15.6236 10.369C16.2072 9.74573 16.4976 8.84114 16.4976 7.66124C16.4976 6.47831 16.1951 5.60095 15.5873 5.02613C14.9794 4.4513 14.1265 4.16389 13.0287 4.16389H3.14528V19.1456H0V0.993286H13.0287C14.06 0.993286 14.9824 1.14758 15.799 1.45617C16.6155 1.76476 17.3051 2.20647 17.8706 2.77826C18.4361 3.35309 18.8686 4.04893 19.168 4.86276C19.4674 5.67961 19.6187 6.59328 19.6187 7.60981C19.6187 9.12552 19.289 10.3932 18.6327 11.4188C17.9765 12.4413 17.0571 13.1795 15.8746 13.6273L21.3395 19.1456H16.8484V19.1426Z" fill="white"/>
<path d="M22.9907 19.1426V0.990234H39.1889V4.16084H26.136V15.9719H39.2161V19.1426H22.9907ZM28.4556 11.2523V8.58093H38.5145V11.2523H28.4556Z" fill="white"/>
<path d="M60.1807 19.1426L52.5685 11.7273L45.0319 19.1426H40.9128L50.6481 9.70335L41.6115 0.990234H45.9785L52.8921 7.70659L59.7059 0.990234H63.825L54.7883 9.70335L64.6234 19.1426H60.1807Z" fill="white"/>
</svg>
